<?xml version="1.0" encoding="UTF-8"?>
<svg enable-background="new 0 0 512 512" version="1.1" viewBox="0 0 512 512" xml:space="preserve" xmlns="http://www.w3.org/2000/svg" xmlns:cc="http://creativecommons.org/ns#" xmlns:dc="http://purl.org/dc/elements/1.1/" xmlns:rdf="http://www.w3.org/1999/02/22-rdf-syntax-ns#"><metadata><rdf:RDF><cc:Work rdf:about=""><dc:format>image/svg+xml</dc:format><dc:type rdf:resource="http://purl.org/dc/dcmitype/StillImage"/></cc:Work></rdf:RDF></metadata>
<path d="m513 188v324.96h-511.9v-511.8h511.9v186.84m-143.38-127.5s-0.099366-0.040463-0.2865-0.59409c-0.55695-0.77663-1.1139-1.5533-1.7409-2.4384 0 0-0.12915-0.003929-0.38495-0.61174-17.903-24.522-41.975-38.409-72.302-39.667-23.452-0.97273-46.978-0.017344-70.467-0.28408-12.813-0.1455-25.033 2.2238-36.716 7.2004-16.859 7.1818-31.019 17.846-41.332 33.354 0 0-0.076782 0.11549-0.54134 0.47682-0.46948 0.83652-0.93895 1.673-1.4925 2.5697 0 0-0.02005 0.10139-0.52565 0.49117-2.6342 5.342-5.2684 10.684-7.8218 16.008 0 0-0.016938-0.081024-0.61704 0.33178-0.54596 1.892-1.0919 3.7841-1.4576 5.5982 0 0-0.085327-0.17692-0.6554 0.23029-0.18907 0.9051-0.37816 1.8102-1.155 3.2248-1.0406 7.4789-2.9697 14.956-2.9867 22.437-0.20894 92.161-0.14188 184.32-0.13506 276.48 7.02e-4 9.3598 6.2244 15.627 15.511 15.684 10.829 0.065612 21.658 0.1127 32.488 0.94052 0.056214 1.0266 0.11243 2.0531 0.026795 4.0053v90.763h159.8c0-30.759 0-61.224 0.15778-92.447 0.003814-1.0313 0.007629-2.0627 0.93973-3.2362 10.829-0.008392 21.659 0.049591 32.487-0.047058 8.1066-0.072296 14.565-6.5075 14.567-14.601 0.019714-93.963 0.13474-187.93-0.26172-281.89-0.033417-7.9156-3.5714-15.817-5.4374-24.317-0.42465-1.0813-0.84927-2.1627-1.2915-3.1639 0 0 0.079743 0.019081 8.24e-4 -0.73318-2.1742-4.1847-4.3483-8.3694-6.4764-12.622 0 0-0.030915-0.076344-0.19962-0.6509-0.55002-0.79917-1.1-1.5983-1.6902-2.497z" fill="none"/>
<path d="m177 401.16c-10.829-0.055145-21.658-0.10223-32.487-0.16785-9.2868-0.056244-15.511-6.3239-15.511-15.684-0.00682-92.161-0.073883-184.32 0.13506-276.48 0.016952-7.4812 1.9461-14.958 3.56-22.902 0.7661-1.3657 0.95889-2.2663 1.1517-3.1669 0 0 0.085327 0.17692 0.28711-0.010314 0.75314-2.0661 1.3045-3.9449 1.8559-5.8238 0 0 0.016938 0.081024 0.28732-0.062363 2.8659-5.5136 5.4615-10.884 8.0571-16.254 0 4e-6 0.02005-0.10138 0.43883-0.080238 0.79195-0.96995 1.1651-1.961 1.5383-2.9521 0 4e-6 0.076782-0.11548 0.49882-0.046402 1.4127-0.78511 2.5561-1.5144 3.3716-2.5118 19.571-23.936 45.018-35.595 75.713-35.95 20.137-0.23247 40.279-0.049824 60.419-0.042702 31.484 0.011133 57.592 11.545 77.648 36.145 0.84015 1.0305 2.3171 1.5418 3.4974 2.2949 0 4e-6 0.12915 0.003933-0.007263 0.39899 0.5972 1.129 1.3308 1.863 2.0644 2.597 0 0 0.099366 0.040463-0.046905 0.42852 0.57089 1.1532 1.2881 1.9184 2.0052 2.6835 0-4e-6 0.030915 0.07634-0.099517 0.47026 2.1417 4.5895 4.4137 8.7852 6.6858 12.981 0 0-0.079743-0.019081-0.070771 0.2655 0.41892 1.347 0.82889 2.4093 1.2389 3.4717 1.9098 7.9077 5.4477 15.809 5.4811 23.724 0.39645 93.961 0.28143 187.92 0.26172 281.89-0.001679 8.0938-6.4602 14.529-14.567 14.601-10.828 0.096649-21.658 0.038666-33.415 0.059571-30.681-0.001954-60.435-0.041016-90.188-0.02295-23.268 0.01413-46.536 0.099121-69.804 0.15265m115.35-50.885c19.428 9.0151 44.267-4.5503 44.447-27.805 0.54199-70.305 0.24094-140.62 0.1398-210.93-0.012879-8.9383-3.8244-16.772-10.562-22.367-10.549-8.7607-22.671-11.269-35.379-4.9068-12.1 6.0573-18.004 16.28-18.003 29.864 0.005829 68.476 0.007019 136.95-9.77e-4 205.43-0.001648 13.969 6.0497 24.208 19.358 30.712m-115.35-66.78c9.92e-4 12.991-0.11159 25.982 0.031525 38.971 0.18199 16.519 14.974 30.531 32 30.527 17.004-0.004181 31.907-14.074 31.928-30.624 0.08847-70.282 0.083328-140.56-0.020172-210.85-0.013153-8.933-3.8316-16.764-10.569-22.354-10.548-8.752-22.665-11.257-35.368-4.8999-12.097 6.0536-18.005 16.272-18.004 29.848 0.003861 56.126 0.001465 112.25 0.001389 169.38z" fill="#50fa7b"/>
<path d="m336.83 405.02v91.689h-159.8c0-30.243 0-60.503 0.52855-91.228 53.441-0.46353 106.35-0.46234 159.27-0.46115m-24.789 28.028c-10.336 0.025147-20.672 0.050293-31.903-0.011505-2.6936 0.65451-7.1962-2.2214-7.1609 3.7401 0.048951 8.2596 0.08902 16.52 0.016877 24.779-0.022644 2.5953 1.0952 3.5981 3.5723 3.4399 1.4818-0.094665 2.9696-0.095642 5.3859-0.049957 10.345-0.029602 20.689-0.059204 31.928 1.52e-4 2.5294-0.74847 6.9578 2.241 7.0612-3.2983 0.1572-8.423 0.008942-16.851 0.10132-25.276 0.028839-2.6321-1.1772-3.5467-3.6155-3.3923-1.482 0.09378-2.9695 0.098877-5.3852 0.068847m-80 0c-10.336 0.025177-20.672 0.050324-31.904-0.011505-2.6936 0.65457-7.1962-2.2216-7.1608 3.7401 0.048996 8.2596 0.088928 16.52 0.01683 24.779-0.022659 2.5952 1.0951 3.5983 3.5722 3.44 1.4818-0.094665 2.9696-0.095611 5.3859-0.050018 10.345-0.029572 20.689-0.059143 31.928 2.13e-4 2.5295-0.74838 6.9579 2.2409 7.0612-3.2984 0.15714-8.423 0.008774-16.851 0.10114-25.276 0.028854-2.6323-1.1773-3.5466-3.6155-3.3922-1.482 0.09375-2.9696 0.098877-5.3852 0.068847z" fill="#44475a"/>
<path d="m336.91 404.64c-52.992 0.37787-105.9 0.37668-159.27 0.37738-0.51384-1.0247-0.57005-2.0512-0.62657-3.4641 23.268-0.43985 46.536-0.52484 69.804-0.53897 29.753-0.018066 59.506 0.020996 89.724 0.094056 0.46042 1.0899 0.4566 2.1212 0.3739 3.5316z" fill="#44475a"/>
<path d="m367.34 57.163c-1.0524-0.44926-2.5293-0.96054-3.3695-1.991-20.057-24.6-46.165-36.134-77.648-36.145-20.14-0.007122-40.282-0.18977-60.419 0.042702-30.695 0.35436-56.143 12.013-75.713 35.95-0.81548 0.9974-1.9589 1.7267-3.3022 2.5134 9.8208-15.579 23.981-26.243 40.84-33.424 11.682-4.9766 23.903-7.3459 36.716-7.2004 23.489 0.26674 47.015-0.68865 70.467 0.28408 30.326 1.2579 54.399 15.145 72.43 39.971z" fill="#6FEACB"/>
<path d="m144.09 60.805c-2.3428 5.1754-4.9383 10.546-7.8446 16.068 2.3234-5.1895 4.9576-10.532 7.8446-16.068z" fill="#6FEACB"/>
<path d="m378.03 76.649c-2.2326-3.8195-4.5047-8.0151-6.6693-12.57 2.2816 3.825 4.4557 8.0097 6.6693 12.57z" fill="#6FEACB"/>
<path d="m135.7 77.133c-0.25131 1.6724-0.80267 3.5513-1.646 5.6563 0.25401-1.6658 0.79996-3.5579 1.646-5.6563z" fill="#6FEACB"/>
<path d="m379.26 80.467c-0.43182-0.76619-0.8418-1.8286-1.2519-3.2156 0.42447 0.75671 0.84909 1.838 1.2519 3.2156z" fill="#6FEACB"/>
<path d="m146.08 57.758c-0.14088 0.81043-0.51405 1.8015-1.264 2.7414 0.092743-0.88772 0.56221-1.7242 1.264-2.7414z" fill="#6FEACB"/>
<path d="m369.43 60.186c-0.64004-0.45717-1.3737-1.1912-1.9358-2.2659 0.72836 0.43586 1.2853 1.2125 1.9358 2.2659z" fill="#6FEACB"/>
<path d="m371.4 63.287c-0.63281-0.47786-1.35-1.243-1.9007-2.3465 0.71637 0.46085 1.2664 1.26 1.9007 2.3465z" fill="#6FEACB"/>
<path d="m133.57 82.964c0.092224 0.69697-0.10057 1.5976-0.57282 2.7085-0.090377-0.69471 0.09871-1.5998 0.57282-2.7085z" fill="#6FEACB"/>
<path d="m291.99 350.16c-12.946-6.3804-18.997-16.62-18.996-30.589 0.007996-68.476 0.006806-136.95 9.77e-4 -205.43-0.00116-13.584 5.9033-23.806 18.003-29.864 12.708-6.3617 24.829-3.8539 35.379 4.9068 6.7373 5.595 10.549 13.429 10.562 22.367 0.10114 70.309 0.40219 140.62-0.1398 210.93-0.17926 23.254-25.019 36.82-44.809 27.682z" fill="#bd93f9"/>
<path d="m177 283c7.6e-5 -56.626 0.002472-112.75-0.001389-168.88-9.3e-4 -13.577 5.9069-23.795 18.004-29.848 12.703-6.3571 24.82-3.8521 35.368 4.8999 6.7375 5.5902 10.556 13.421 10.569 22.354 0.1035 70.282 0.10864 140.56 0.020172 210.85-0.020828 16.55-14.924 30.62-31.928 30.624-17.026 0.004181-31.818-14.008-32-30.527-0.14311-12.989-0.030533-25.981-0.031525-39.471z" fill="#bd93f9"/>
<path d="m312.98 464.85c-10.345 0.029572-20.689 0.059174-31.504-0.41074-0.47235-8.1482-0.474-15.797-0.007294-23.445 10.821 2.44e-4 21.174-2.44e-4 31.527 0.46814-0.004883 8.1083-0.010193 15.748-0.015534 23.387z" fill="#282a36"/>
<path d="m232.98 464.85c-10.345 0.029602-20.689 0.059173-31.504-0.41077-0.47232-8.1481-0.47398-15.797-0.007248-23.445 10.821 2.44e-4 21.174-2.44e-4 31.527 0.46814-0.004882 8.1083-0.010147 15.748-0.015411 23.387z" fill="#282a36"/>
<path d="m201 441c0.001664 7.6486 0.003327 15.297 0.01001 23.401-1.4801 0.49826-2.9678 0.49921-4.4496 0.59387-2.4772 0.1583-3.5949-0.84479-3.5722-3.44 0.072098-8.2591 0.032166-16.52-0.01683-24.779-0.035355-5.9616 4.4672-3.0855 7.5972-3.2633 0.43475 2.8137 0.43314 5.1506 0.43152 7.4875z" fill="#282a36"/>
<path d="m201.47 441c-0.46678-2.3377-0.46516-4.6746-0.45193-7.4448 10.347-0.4584 20.683-0.48355 31.496-0.037933 0.4789 2.8078 0.48059 5.1449 0.4823 7.482-10.353 4.88e-4 -20.706 9.76e-4 -31.527 7.32e-4z" fill="#282a36"/>
<path d="m233 441.47c-0.002105-2.8059-0.003799-5.143-0.017395-7.9134 1.4732-0.47824 2.9608-0.48337 4.4427-0.57712 2.4382-0.15439 3.6443 0.75995 3.6155 3.3922-0.092362 8.4248 0.055999 16.853-0.10114 25.276-0.10335 5.5393-4.5318 2.55-7.5082 3.254-0.44167-7.6839-0.4364-15.323-0.43152-23.432z" fill="#282a36"/>
<path d="m281 441c0.001679 7.6486 0.003327 15.297 0.010071 23.401-1.48 0.49823-2.9678 0.49921-4.4496 0.59387-2.4771 0.15826-3.5949-0.84454-3.5723-3.4399 0.072143-8.2591 0.032074-16.52-0.016877-24.779-0.035308-5.9615 4.4673-3.0855 7.5973-3.2633 0.43472 2.8137 0.43308 5.1506 0.43146 7.4876z" fill="#282a36"/>
<path d="m281.47 441c-0.46677-2.3377-0.46512-4.6747-0.45184-7.4448 10.347-0.4584 20.683-0.48355 31.496-0.037903 0.47888 2.8078 0.48059 5.1449 0.4823 7.482-10.353 4.88e-4 -20.706 9.76e-4 -31.527 7.32e-4z" fill="#282a36"/>
<path d="m313 441.47c-0.002136-2.8059-0.003845-5.143-0.017456-7.9134 1.4732-0.47824 2.9608-0.48334 4.4427-0.57712 2.4383-0.15445 3.6444 0.76013 3.6155 3.3923-0.092376 8.4248 0.055878 16.853-0.10132 25.276-0.10339 5.5393-4.5318 2.5498-7.5081 3.2538-0.44159-7.6839-0.43628-15.323-0.4314-23.432z" fill="#282a36"/>
</svg>
